<?xml version="1.0" encoding="utf-8"?>
<!-- Generator: Adobe Illustrator 26.0.3, SVG Export Plug-In . SVG Version: 6.00 Build 0)  -->
<svg version="1.1" id="Layer_1" xmlns="http://www.w3.org/2000/svg" xmlns:xlink="http://www.w3.org/1999/xlink" x="0px" y="0px"
	 viewBox="0 0 57 57" style="enable-background:new 0 0 57 57;" xml:space="preserve">
<style type="text/css">
	.st0{fill:#46B3E5;fill-opacity:0;}
	.st1{fill:#71B83F;fill-opacity:0;}
	.st2{fill:#FF8743;}
	.st3{fill:#E64651;fill-opacity:0;}
</style>
<path class="st0" d="M27.7,0L11.2,23c-2.7,3.7,0,9,4.6,9h18.1c0,0-14.1,26-12.1,25c1.3-0.7,16.4-16,26.6-26.4c3.5-3.6,1-9.6-4-9.6
	H23.7L27.7,0z"/>
<path class="st1" d="M29.6,16.1C10.6-6-6.3,15.1,6.4,27.7C21.7,43,29.6,50.6,29.6,50.6l21.1-22.9C65.4,12.9,44.3-6,29.6,16.1z"/>
<path class="st2" d="M28.9,3.5C15.4,3.5,4.4,14.5,4.4,28s11,24.5,24.5,24.5s24.5-11,24.5-24.5S42.5,3.5,28.9,3.5z M29.4,48.5
	c-11,0-20-9-20-20c0-0.2,0-0.3,0-0.5h4c0,0.2,0,0.3,0,0.5c0,8.8,7.2,16,16,16s16-7.2,16-16c0-0.2,0-0.3,0-0.5h4c0,0.2,0,0.3,0,0.5
	C49.4,39.5,40.5,48.5,29.4,48.5z"/>
<path class="st3" d="M30.2,7.2V0H23l0.1,12.1c0,2.9,2.4,5.3,5.3,5.3l0,0c0.5,0,1,0.4,1.1,0.9c0.7,3.1,1.9,13.5-13,15.5
	c-4.6,0.6-8,4.6-8,9.2V57h7.2v-9.3C52.4,64.7,68.6,0,30.2,7.2z"/>
</svg>
